<svg width="240" height="160" viewBox="0 0 240 160" fill="none" xmlns="http://www.w3.org/2000/svg">
<path d="M167.176 68.0062L156.441 68.0041L156.462 68.7394C156.497 70.3392 157.038 72.353 159.737 72.353H162.896L166.92 72.3509C171.108 72.3509 173.338 73.7266 172.702 78.4053L172.194 82.1478C171.571 86.9914 168.101 87.6993 165.037 87.6993H160.971L162.108 78.3884C162.277 77.0508 161.599 74.8551 159.056 74.8551H155.54L154.6 82.5304L153.712 89.2673C153.465 91.0699 154.786 92.0779 157.622 92.0779L165.872 92.0757C174.274 92.0757 176.546 89.0369 177.699 87.1308C178.331 86.0404 178.777 84.7091 179.033 83.1707C179.088 82.8688 179.656 78.0672 179.656 78.0672C180.003 75.1615 179.462 72.949 178.001 71.307C176.062 69.1304 172.524 68.0062 167.176 68.0062ZM74.1427 77.9756L73.6207 81.9484C73.3882 83.7214 72.9064 85.0739 72.1477 86.0798C71.0975 87.4132 69.4978 88.2458 67.2725 88.2458H65.9707C63.7581 88.2458 62.1605 87.4787 61.4801 86.215C61.0215 85.2704 60.9032 83.9264 61.1378 82.1407L61.6555 78.17C61.9387 76.0357 62.6191 74.4697 63.7349 73.3878C64.8168 72.3291 66.37 71.8219 68.2318 71.8219H69.4487C70.7315 71.8219 72.4263 72.0334 73.3751 73.2885C74.1676 74.3324 74.4152 75.8667 74.1427 77.9756ZM69.7382 67.4539H69.7274L68.5504 67.456C60.1039 67.5446 55.6936 71.057 54.7617 77.779L54.2038 82.1365C53.8488 85.1436 54.3835 87.3899 55.8374 89.0256C57.6357 91.0395 60.7781 92.4955 65.5539 92.5462H66.7416C74.9979 92.4594 79.404 89.0531 80.4394 82.8043L80.5113 82.3544L81.0692 78.0033C81.439 74.88 80.8895 72.5554 79.3976 70.8775C77.595 68.8572 74.4634 67.5046 69.7382 67.4539ZM205.27 77.9756L204.746 81.9484C204.516 83.7214 204.036 85.0739 203.278 86.0798C202.23 87.4132 200.628 88.2458 198.402 88.2458H197.099C194.886 88.2458 193.288 87.4787 192.608 86.215C192.15 85.2704 192.033 83.9264 192.266 82.1407L192.786 78.17C193.067 76.0357 193.747 74.4697 194.861 73.3878C195.943 72.3291 197.494 71.8219 199.364 71.8219H200.577C201.862 71.8219 203.556 72.0334 204.503 73.2885C205.296 74.3324 205.547 75.8667 205.27 77.9756ZM210.528 70.8773C208.725 68.857 205.591 67.5046 200.866 67.4539H200.858L199.679 67.456C191.232 67.5446 186.822 71.0569 185.892 77.779L185.33 82.1365C184.979 85.1436 185.516 87.3899 186.965 89.0256C188.764 91.0395 191.906 92.4955 196.684 92.5462H197.865C206.128 92.4594 210.532 89.0531 211.572 82.8043L211.644 82.3544L212.195 78.0033C212.567 74.88 212.018 72.5552 210.528 70.8773ZM142.156 77.9756L141.636 81.9484C141.406 83.7214 140.922 85.0739 140.163 86.0798C139.115 87.4132 137.513 88.2458 135.288 88.2458H133.984C131.776 88.2458 130.174 87.4787 129.498 86.215C129.035 85.2704 128.919 83.9264 129.155 82.1407L129.671 78.17C129.956 76.0357 130.633 74.4697 131.751 73.3878C132.832 72.3291 134.384 71.8219 136.25 71.8219H137.462C138.747 71.8219 140.442 72.0334 141.393 73.2885C142.185 74.3324 142.433 75.8667 142.156 77.9756ZM137.756 67.4539H137.748L136.564 67.456C128.118 67.5446 123.71 71.0569 122.778 77.779L122.22 82.1365C121.867 85.1436 122.401 87.3899 123.855 89.0256C125.649 91.0395 128.796 92.4955 133.568 92.5462H134.755C143.014 92.4594 147.418 89.0531 148.457 82.8043L148.529 82.3544L149.085 78.0033C149.453 74.88 148.903 72.5554 147.414 70.8775C145.615 68.8572 142.477 67.5046 137.756 67.4539ZM111.043 69.3373L101.768 79.859L95.2506 69.443C94.6271 68.4772 93.3592 67.9912 91.4911 67.9912H88.5474L85.61 92.0819H89.2004C90.3964 92.0819 91.2396 91.5685 91.7299 91.1373C92.4864 90.4801 92.9914 89.5418 93.1225 88.5465L94.4263 77.9783L99.236 87.1116C99.4495 87.4542 100.035 88.2253 100.804 88.2316H100.863C101.677 88.2256 102.357 87.473 102.571 87.2215L109.868 78.0205L108.124 92.0713L111.588 92.0756C112.782 92.0756 113.625 91.564 114.115 91.1331C114.872 90.4759 115.377 89.5376 115.506 88.5423L118.056 67.9912H114.99C113.179 67.9912 111.85 68.4434 111.043 69.3373ZM41.6435 68.0018C40.441 68.0018 39.3527 68.1031 38.3215 68.2576C32.3263 69.1494 29.0973 72.4228 28.3344 77.9636L27.7955 82.1732C27.4511 85.0746 27.9667 87.2449 29.3699 88.8235C30.9992 90.6472 33.7845 92.1243 37.9221 92.1243H45.1937C49.4075 92.1243 49.9104 87.7161 49.9104 87.7161H40.2719C38.9639 87.7041 37.7023 87.6041 36.8084 87.2746C35.5954 86.829 34.86 86.0469 34.6085 84.6226C34.5113 84.0625 34.5388 82.8178 34.6445 82.0276L35.1221 78.3442C35.2658 77.3996 35.5553 76.3493 35.6926 76.009C36.0498 75.1321 36.6204 74.2234 37.5608 73.5641C38.1102 73.1795 39.4014 72.3933 42.662 72.3933H48.0064C51.7257 72.3933 52.4082 67.9978 52.4082 68.0021L41.6435 68.0018Z" fill="#5B5B5B"/>
</svg>
