<svg width="232" height="155" viewBox="0 0 232 155" fill="none" xmlns="http://www.w3.org/2000/svg">
<path d="M107.789 94.7687C107.887 94.7823 107.909 94.7863 108.005 94.7988C109.612 95.0177 111.191 95.3079 112.4 95.8495C113.521 96.3453 114.177 96.9726 114.777 98.091C115.689 99.7868 115.748 102.163 114.924 103.961C114.309 105.299 112.958 106.421 111.724 107.015C110.443 107.638 109.181 107.934 107.734 108.1C105.202 108.379 102.468 107.853 100.19 106.749C98.8419 106.089 97.1961 104.954 96.3659 103.49C95.7554 102.418 95.7749 101.024 96.5176 100.005C97.7015 98.3807 100.237 98.0232 102.147 98.091C103.603 98.1475 106.225 98.5985 107.608 99.0914C107.991 99.2302 109.404 99.782 109.651 100.035C109.824 100.211 109.937 100.467 109.859 100.703C109.543 101.671 107.195 102.182 106.517 102.284C104.702 102.563 103.76 101.875 101.697 101.058C101.185 100.857 100.502 100.634 99.9809 100.586C99.0441 100.496 97.9127 100.759 97.7338 101.784C97.645 102.312 98.263 102.806 98.7343 103.014C99.8411 103.49 100.741 103.662 101.83 103.676C105.048 103.729 108.665 103.198 111.297 101.33C111.657 101.072 112.011 100.695 112.015 100.219C112.026 99.2588 110.346 98.6717 110.346 98.6717C108.573 97.9309 105.297 97.5703 103.61 97.431C101.839 97.2774 99.052 97.0476 98.3829 96.9489C97.694 96.8503 96.9458 96.711 96.3492 96.4431C95.7499 96.1718 95.1636 95.5646 94.9896 94.8928C94.6811 93.6819 95.0748 92.196 95.7458 91.2287C97.5045 88.6948 101.624 87.7324 104.702 87.3502C107.681 86.9787 112.497 86.9825 115.423 88.5406C115.874 88.7833 116.105 89.009 116.011 89.493C115.82 90.4015 115.139 90.987 114.313 91.2437C113.446 91.52 111.654 91.6277 110.867 91.6774C107.339 91.8755 103.077 91.7716 99.7167 92.6898C99.4535 92.7651 98.9988 92.888 98.851 93.0534C98.3251 93.6255 99.8272 93.789 100.149 93.8545C100.245 93.8774 100.263 93.8806 100.363 93.8915L107.789 94.7687ZM86.8034 79.0058C86.8034 79.0058 87.3772 78.1434 87.858 77.4892C88.7333 76.2977 90.3175 74.6454 91.5105 73.6224C91.8755 73.3099 92.3058 72.956 92.3058 72.956C92.3058 72.956 91.6328 73.0257 91.2514 73.1039C90.3463 73.2804 89.019 74.1644 88.3559 74.7357C87.2616 75.6744 86.0582 77.2005 86.6027 78.5565C86.6817 78.7481 86.8034 79.0058 86.8034 79.0058ZM92.8868 80.6372C94.6156 80.5178 96.2349 80.019 97.7426 79.1809C99.2211 78.3518 101.396 76.735 101.17 74.8344C101.102 74.2192 100.7 73.7547 100.193 73.5379C99.5331 73.2516 99.1892 73.2978 98.3469 73.5487C97.7349 73.7281 97.4592 73.837 96.8813 74.1684C95.1854 75.1558 92.7808 77.269 91.4754 78.9555C91.1741 79.3533 90.869 79.7981 90.6302 80.103C90.4796 80.291 90.3625 80.4636 90.3771 80.5095C90.4292 80.7007 92.2117 80.6832 92.8868 80.6372ZM88.4853 83.8772C88.307 84.0662 88.1184 84.5219 87.9228 84.8519C87.8182 85.0284 87.6246 85.2557 87.4964 85.347C87.0465 85.6785 86.6653 85.6939 86.2309 85.3108C85.6219 84.7709 85.2696 83.9359 85.2446 83.1235C85.2316 82.7691 85.2922 82.3769 85.2253 82.078C85.1145 81.5735 84.6107 81.0538 84.3391 80.5714C84.0202 80.0032 83.7621 79.0124 83.73 78.3727C83.6206 76.378 84.6698 74.5406 86.0327 73.0914C87.4052 71.6259 89.2009 70.408 91.1538 69.5788C92.9998 68.7996 95.7049 68.2684 97.7321 68.972C98.392 69.1986 99.3114 69.7614 99.7735 70.3511C99.8716 70.4734 99.9516 70.6058 100.052 70.6705C100.142 70.7281 100.378 70.7508 100.566 70.7853C101.212 70.8976 102.143 71.3882 102.523 71.715C103.287 72.3754 103.706 73.0068 103.899 73.923C104.288 75.7665 103.228 77.7891 102.022 79.0201C99.9559 81.1387 97.9155 82.6283 95.2725 83.6653C94.1116 84.1197 92.3036 84.5443 90.9866 84.4255C90.5775 84.3916 90.1574 84.2835 89.7591 84.2571C89.5559 84.2395 88.8127 84.0475 88.7333 83.9933C88.6348 83.9174 88.5076 83.8514 88.4853 83.8772ZM90.8458 87.9645C90.9263 87.9781 91.0503 88.0143 91.157 88.0554C92.0836 88.4086 92.4648 89.268 92.693 90.2119C93.222 92.4038 93.4477 97.2531 93.5357 99.1512C93.6003 100.576 93.6358 101.977 93.6954 103.386C93.7459 104.578 93.8409 106.164 93.5928 107.281C93.5027 107.683 93.2345 108.15 92.8504 108.389C92.4105 108.672 91.4092 108.693 90.8588 108.579C89.5021 108.298 89.0613 107.424 88.8677 106.079C88.4075 102.871 88.6291 96.5745 88.9007 93.9176C88.991 93.04 89.3208 90.2282 89.778 89.0492C89.9342 88.6517 90.2667 87.851 90.8458 87.9645ZM49.5741 93.3025C49.5741 93.3025 47.555 93.4458 46.1653 93.6003C44.3973 93.7912 41.0753 94.366 39.1577 95.0522C38.5825 95.2586 37.4141 95.7486 37.3126 96.3413C37.2059 96.9557 37.5864 97.436 38.0095 97.933C38.2542 98.2217 39.639 99.5568 40.0273 99.8812C41.6551 101.243 44.9557 103.343 47.3867 104.363C48.2219 104.71 49.6036 105.205 49.6036 105.205C49.6036 105.205 49.501 101.263 49.5193 97.3795C49.53 95.3308 49.5741 93.3025 49.5741 93.3025ZM86.5966 94.8716C86.7123 95.9307 86.4406 97.9332 86.3935 98.1974C86.3075 98.8062 85.8494 100.21 85.7734 100.382C85.4036 101.235 85.039 101.935 84.6526 102.632C83.9905 103.826 82.4162 105.719 81.4816 106.529C78.006 109.54 72.6258 111.254 68.0101 111.819C64.8781 112.198 61.2792 112.142 57.9606 111.527C56.8184 111.319 55.1187 110.926 55.1187 110.926C55.1187 110.926 55.1243 111.607 55.0698 112.086C55.0434 112.305 54.8792 112.88 54.7872 113.066C54.5459 113.566 54.1497 113.823 53.5736 113.934C52.8783 114.064 52.1409 114.107 51.4985 113.831C50.4436 113.387 50.0649 112.398 49.8811 111.257C49.7324 110.345 49.5768 108.759 49.5768 108.759C49.5768 108.759 48.7877 108.384 48.1297 108.055C46.1086 107.057 44.1891 105.848 42.5097 104.605C42.0445 104.257 40.0457 102.579 39.6046 102.162C38.3675 100.985 37.2546 99.8145 36.408 98.312C35.7498 97.1383 35.5603 96.0965 36.0609 94.8528C36.7512 93.1192 39.2312 91.814 40.9286 91.0702C42.1744 90.519 46.0483 89.2513 47.6575 89.0163C48.4175 88.9074 49.5964 88.6958 49.6689 88.6486C49.6985 88.6259 49.719 88.6066 49.7405 88.5821C49.7776 88.5297 49.8402 86.8137 49.8281 86.1859C49.8124 85.5687 50.2839 81.515 50.4354 80.6578C50.5144 80.1942 50.8648 78.4097 51.2224 77.9413C51.4564 77.6248 51.87 77.6503 52.2073 77.8581C54.053 79.0083 54.6137 82.9971 54.7509 85.0266C54.833 86.2632 54.8739 88.1232 54.8739 88.1232C54.8739 88.1232 56.9912 88.0604 58.2936 88.0974C59.5592 88.1269 60.9542 88.3271 62.2679 88.5368C63.9497 88.8071 67.2279 89.5237 69.108 90.4789C70.6561 91.2655 72.1052 92.5907 72.5747 93.9933C73.0109 95.279 72.9456 96.1687 72.2812 97.3291C71.5341 98.6393 70.1211 99.6131 68.6884 99.6945C68.262 99.7192 66.6573 99.5055 66.1635 99.1224C65.9699 98.9696 65.9799 98.694 66.1196 98.5071C66.1726 98.4415 66.9227 98.0418 67.3655 97.8086C67.5746 97.6966 67.7691 97.559 67.9444 97.399C68.3122 97.0744 68.6432 96.7171 68.6063 96.2982C68.5554 95.7545 67.9813 95.4192 67.4342 95.2035C64.8668 94.1814 59.7409 93.333 57.2638 93.1861C56.2943 93.1291 54.9151 93.0802 54.9151 93.0802L55.2067 106.788C55.2067 106.788 56.3469 107.006 57.2455 107.152C57.761 107.23 59.9456 107.427 60.5261 107.441C64.9462 107.558 69.8796 107.162 73.936 105.243C75.7169 104.404 77.3507 103.358 78.5876 101.942C80.2179 100.069 81.0716 97.5058 80.8457 94.8283C80.598 91.9042 78.5444 88.4329 76.9046 86.3193C72.5717 80.7352 65.1447 76.1418 58.6105 73.4487C51.9396 70.7011 45.3466 69.1205 38.2668 68.8558C36.4417 68.788 32.4622 68.8803 30.4506 69.4379C30.1633 69.5191 29.8736 69.616 29.6068 69.6761C29.3961 69.7278 29.0639 69.8677 28.9727 69.9415C28.937 69.9717 28.9034 70.0043 28.8723 70.0392C28.8723 70.0392 28.9963 70.1079 29.1148 70.1581C29.3279 70.2513 30.2248 70.3071 30.689 70.3922C31.1043 70.4706 31.5367 70.6891 31.7078 70.994C31.8704 71.2839 31.8908 71.5125 31.6964 71.7543C31.2406 72.3098 29.5251 72.2161 28.7697 72.0963C27.9846 71.9709 27.0072 71.7302 26.8276 71.0452C26.6194 70.2384 27.0018 69.4476 27.415 68.7164C28.245 67.2537 29.4339 66.4928 31.175 66.0164C33.6479 65.3345 36.7704 64.8577 39.1056 64.7682C44.3909 64.5681 49.3932 65.4944 54.5141 67.0525C57.445 67.9406 61.2821 69.4309 64.0912 70.7864C66.107 71.7604 69.2828 73.5515 71.0669 74.7221C71.6296 75.0943 74.9224 77.5189 75.4339 77.9451C76.5009 78.8193 77.8965 80.0758 78.9071 81.0808C80.8623 83.0225 83.2942 85.9988 84.4756 88.3612C84.7599 88.9269 84.9801 89.4835 85.3469 90.1391C85.473 90.3638 86.0127 91.7072 86.1025 92.0953C86.1913 92.4793 86.3216 93.0438 86.34 93.0661C86.366 93.2723 86.6162 94.4266 86.5966 94.8716ZM153.042 91.8407C150.567 92.4126 144.058 92.7302 144.058 92.7302L143.237 95.3067C143.237 95.3067 146.49 95.0284 148.856 95.2761C148.856 95.2761 149.623 95.1869 149.713 96.1483C149.743 97.0451 149.637 98.0073 149.637 98.0073C149.637 98.0073 149.588 98.5894 148.765 98.7375C147.873 98.8865 141.754 99.1236 141.754 99.1236L140.763 102.482C140.763 102.482 140.395 103.258 141.22 103.037C141.987 102.831 148.398 101.625 149.233 101.799C150.128 102.022 151.118 103.217 150.832 104.307C150.491 105.657 144.092 109.747 140.195 109.461C140.195 109.461 138.147 109.594 136.417 106.824C134.805 104.185 137.028 99.1884 137.028 99.1884C137.028 99.1884 136.009 96.8557 136.747 96.065C136.747 96.065 137.186 95.6655 138.467 95.5751L140.036 92.3235C140.036 92.3235 138.249 92.4468 137.186 91.1297C136.197 89.8803 136.114 89.3061 136.873 88.9611C137.684 88.5594 145.123 87.1987 150.243 87.3713C150.243 87.3713 152.022 87.1962 153.565 90.2888C153.565 90.289 154.312 91.5397 153.042 91.8407ZM133.787 104.343C133.131 105.89 131.398 107.54 129.245 106.514C127.12 105.486 123.735 98.5425 123.735 98.5425C123.735 98.5425 122.45 95.9534 122.203 96.0201C122.203 96.0201 121.925 95.5145 121.755 98.3439C121.578 101.161 121.789 106.655 120.667 107.52C119.605 108.387 118.319 108.041 117.652 107.028C117.045 106.03 116.793 103.659 117.124 99.4944C117.513 95.3215 118.48 90.8819 119.716 89.4994C120.95 88.1262 121.941 89.1231 122.327 89.4847C122.327 89.4847 123.977 90.9842 126.7 95.3872L127.18 96.2016C127.18 96.2016 129.654 100.361 129.912 100.352C129.912 100.352 130.115 100.543 130.295 100.406C130.554 100.331 130.45 98.9974 130.45 98.9974C130.45 98.9974 129.936 94.464 127.68 86.7908C127.68 86.7908 127.338 85.8339 127.569 84.9374C127.798 84.0314 128.705 84.4567 128.705 84.4567C128.705 84.4567 132.202 86.2192 133.9 91.9263C135.587 97.6353 134.453 102.785 133.787 104.343ZM171.433 100.925C169.841 103.709 165.346 109.539 159.372 108.162C157.399 112.956 155.742 117.806 154.794 125.063C154.794 125.063 154.586 126.473 153.417 125.983C152.258 125.577 150.349 123.646 149.962 120.974C149.547 117.465 151.106 111.533 154.292 104.731C153.363 103.217 152.729 101.054 153.271 97.9744C153.271 97.9744 154.072 92.2551 159.803 87.1002C159.803 87.1002 160.49 86.5055 160.889 86.6887C161.328 86.873 161.124 88.7341 160.776 89.6391C160.414 90.5388 157.863 94.9658 157.863 94.9658C157.863 94.9658 156.271 97.9566 156.719 100.316C159.725 95.6841 166.558 86.3444 170.794 89.2896C172.216 90.3097 172.872 92.5287 172.872 94.9197C172.873 97.0199 172.368 99.252 171.433 100.925ZM170.197 93.5898C170.197 93.5898 169.961 91.7484 168.165 93.777C166.62 95.4889 163.833 98.6964 161.589 103.053C163.943 102.788 166.214 101.508 166.9 100.856C168.016 99.8639 170.616 97.1713 170.197 93.5898ZM204.341 93.1706H193.393C193.175 89.4414 192.726 85.8089 192.02 82.0678C191.985 81.8805 191.886 81.7112 191.74 81.5892C191.594 81.4672 191.41 81.4002 191.219 81.3998H188.696C188.586 81.4001 188.479 81.4246 188.38 81.4715C188.282 81.5184 188.195 81.5867 188.126 81.6713C188.056 81.7563 188.005 81.8556 187.978 81.9623C187.951 82.069 187.948 82.1804 187.969 82.2885C188.686 85.9087 189.14 89.4718 189.364 93.1741H178.831C178.341 93.1741 177.942 93.5724 177.942 94.0623V96.3436C177.942 96.58 178.036 96.8067 178.203 96.9739C178.369 97.1411 178.596 97.2353 178.831 97.2357H189.515C189.522 97.7987 189.527 98.3029 189.527 98.7759C189.527 102.064 189.386 104.772 189.055 107.829C189.042 107.945 189.054 108.063 189.091 108.174C189.127 108.285 189.187 108.387 189.266 108.474C189.343 108.56 189.437 108.629 189.542 108.676C189.647 108.723 189.761 108.748 189.876 108.748H192.217C192.437 108.748 192.649 108.666 192.812 108.518C192.975 108.37 193.077 108.167 193.098 107.948C193.418 104.87 193.555 102.128 193.555 98.7758C193.555 98.3045 193.55 97.7986 193.543 97.2355H204.342C204.831 97.2355 205.231 96.8344 205.231 96.3435V94.0621C205.23 93.8258 205.137 93.5993 204.97 93.4322C204.803 93.2651 204.577 93.171 204.341 93.1706Z" fill="#5B5B5B"/>
<path d="M57.9488 62.5999C57.8725 62.7132 57.8234 62.8427 57.8054 62.9782C57.7874 63.1137 57.8011 63.2515 57.8453 63.3808C57.8898 63.5102 57.9629 63.6278 58.0593 63.7247C58.1557 63.8217 58.2728 63.8954 58.4018 63.9404L60.3643 64.6023C60.4782 64.639 60.597 64.6581 60.7166 64.659C60.8958 64.6593 61.0723 64.6153 61.2306 64.531C61.3888 64.4467 61.5239 64.3246 61.6239 64.1756C68.0524 54.7112 76.7528 46.8311 86.7858 41.387C97.1437 35.7659 108.879 32.7926 120.727 32.7926C135.037 32.7926 148.845 37.023 160.658 45.0257C172.184 52.8316 181.136 63.7222 186.545 76.5206C186.624 76.7075 186.756 76.867 186.925 76.9791C187.093 77.0912 187.291 77.1508 187.494 77.1507H189.838C189.971 77.1502 190.103 77.1169 190.221 77.0537C190.339 76.9905 190.44 76.8993 190.514 76.7881C190.59 76.6769 190.636 76.5488 190.65 76.4151C190.664 76.2815 190.645 76.1464 190.595 76.022C185.017 62.261 175.584 50.5304 163.314 42.1026C150.752 33.4745 136.026 28.9131 120.727 28.9131C95.4353 28.9131 71.9661 41.5067 57.9488 62.5999Z" fill="#5B5B5B"/>
</svg>
