<svg width="241" height="161" viewBox="0 0 241 161" fill="none" xmlns="http://www.w3.org/2000/svg">
<path d="M111.324 80.6053C111.324 87.637 107.036 90.9725 101.668 90.9725H98.399V86.7355H101.428C104.666 86.7355 106.826 84.9926 106.826 80.5752C106.826 76.218 104.786 74.0544 101.338 74.0544C98.0092 74.0544 95.6402 76.0978 95.6402 80.4851V98.1545H91.142V70.3883H95.6102V72.7923H96.2399C97.7393 70.7789 99.9284 69.8774 102.237 69.8774C107.185 69.8774 111.324 73.4834 111.324 80.6053ZM81.9357 78.7722L78.9669 78.4717C76.6279 78.2614 75.3984 77.6303 75.3984 76.248C75.3984 74.6253 76.9877 73.6938 79.2368 73.6938C81.5759 73.6938 83.0753 74.8056 83.1952 76.3682H87.4835C87.3035 72.3415 84.2148 69.8774 79.2668 69.8774C74.2888 69.8774 70.9302 72.5218 70.9302 76.3983C70.9302 79.6437 72.9694 81.7472 77.6175 82.1979L80.6463 82.4984C82.4755 82.6787 83.705 83.0393 83.705 84.8123C83.705 86.4049 82.5655 87.5468 79.5367 87.5468C76.7478 87.5468 75.3684 86.2847 74.8886 84.5719H70.2405C70.6903 88.4483 73.959 91.4533 79.5367 91.4533C84.7846 91.4533 88.1732 88.6887 88.1732 84.5719C88.1432 80.9959 85.7742 79.1328 81.9357 78.7722ZM128.627 84.6019C127.937 86.2246 126.258 87.4266 123.859 87.4266C120.59 87.4266 118.161 85.2931 118.161 80.6954C118.161 76.3081 120.41 73.8741 123.919 73.8741C127.037 73.8741 128.807 75.7372 128.987 78.5619H120.95V81.8073H133.395V79.6737C133.395 73.7539 129.466 69.9075 123.889 69.9075C118.701 69.9075 113.723 73.4534 113.723 80.6954C113.723 87.9375 118.701 91.4834 123.889 91.4834C128.627 91.4834 132.045 88.5385 133.095 84.6019H128.627ZM58.1254 69.8774C53.2374 69.8774 49.5789 72.4317 49.1291 76.3682H53.9271C54.257 74.9258 55.5764 73.844 58.0954 73.844C61.3341 73.844 62.3837 75.5569 62.3837 77.6303V84.662C60.5544 86.7655 58.4253 87.7271 56.2962 87.7271C54.0771 87.7271 52.5477 86.6453 52.5477 84.7522C52.5477 82.9191 53.7472 81.7772 56.0263 81.7772H59.5948V78.5619H55.8763C50.7784 78.5619 47.8996 81.1161 47.8996 85.0527C47.8996 88.7188 50.6584 91.4834 55.2166 91.4834C57.7656 91.4834 60.0146 90.4617 61.694 89.2296H62.3237V90.9725H66.7919V77.2397C66.9118 72.1612 63.4632 69.8774 58.1254 69.8774ZM27.8077 90.9725H32.2759V62.8157H27.8077V90.9725ZM46.5801 70.3883H41.1223L34.615 78.9826V81.657L41.3023 90.9725H46.85L38.9932 80.3048L46.5801 70.3883ZM208.244 70.3883L204.586 78.5318C203.686 80.4851 202.847 82.4083 202.577 83.7004H201.947C201.677 82.4083 200.807 80.5452 199.908 78.5919L196.249 70.3883H191.301L199.908 88.869L195.649 98.1845H200.418L213.192 70.3883H208.244ZM190.312 70.3883H184.854L178.347 78.9525V81.627L185.034 90.9425H190.582L182.755 80.2747L190.312 70.3883ZM162.303 78.7722L159.334 78.4717C156.995 78.2614 155.766 77.6303 155.766 76.248C155.766 74.6253 157.355 73.6938 159.604 73.6938C161.943 73.6938 163.443 74.8056 163.563 76.3682H167.851C167.671 72.3415 164.582 69.8774 159.634 69.8774C154.656 69.8774 151.298 72.5218 151.298 76.3983C151.298 79.6437 153.337 81.7472 157.985 82.1979L161.014 82.4984C162.843 82.6787 164.072 83.0393 164.072 84.8123C164.072 86.4049 162.933 87.5468 159.904 87.5468C157.115 87.5468 155.736 86.2847 155.256 84.5719H150.608C151.058 88.4483 154.326 91.4533 159.904 91.4533C165.152 91.4533 168.541 88.6887 168.541 84.5719C168.541 80.9959 166.141 79.1328 162.303 78.7722ZM171.539 90.9725H176.007V62.8157H171.539V90.9725ZM142.031 72.7923H141.402V70.3883H136.933V90.9725H141.402V80.2146C141.402 76.5485 143.081 74.415 146.439 74.415H149.258V69.8774H147.609C144.52 69.8774 143.201 71.0494 142.031 72.7923Z" fill="#5B5B5B"/>
</svg>
