<svg width="244" height="164" viewBox="0 0 244 164" fill="none" xmlns="http://www.w3.org/2000/svg">
<path d="M121.89 87.5329L116.973 84.6114L116.622 85.1869C115.524 86.9574 113.987 87.8428 112.1 87.8428C108.85 87.8428 106.436 85.3639 106.436 82.1327C106.436 78.857 108.894 76.4225 112.099 76.4225C114.031 76.4225 115.436 77.2637 116.622 79.0784L116.973 79.6538L121.89 76.7325L121.451 76.1126C119.08 72.6601 116.051 71.0222 112.056 71.0222C104.548 71.0222 100.509 76.7766 100.509 82.1769C100.509 87.5773 104.548 93.3315 112.056 93.3315C115.875 93.3315 119.475 91.384 121.451 88.197L121.89 87.5329Z" fill="#5B5B5B"/>
<path d="M121.627 93.2431H128.388L130.408 88.1971H140.55L142.569 93.2431H149.375L137.257 63.7188H131.198L132.823 67.6583L121.627 93.2431ZM135.545 75.3602L138.267 82.3098H132.735L135.545 75.3602Z" fill="#5B5B5B"/>
<path d="M152.184 93.2874H158.112V80.008H161.975V74.4306H158.112V71.819C158.112 70.668 158.858 69.473 160.263 69.473C161.009 69.473 161.492 69.6058 161.931 69.7829L162.59 70.0484L165.048 64.604L164.39 64.3826C163.292 63.94 161.756 63.7629 160.658 63.7629C157.98 63.7629 155.741 64.6481 154.248 66.3301C152.931 67.791 152.184 69.8272 152.184 72.0846V74.4749H149.55V80.0522H152.184V93.2874Z" fill="#5B5B5B"/>
<path d="M97.9613 93.2426V63.5415L85.273 73.191L72.5408 63.5415V93.1983L78.9947 93.2426V76.2453L85.273 80.9372L91.5074 76.2453V93.2426H97.9613Z" fill="#5B5B5B"/>
<path d="M175.366 71.0222C167.902 71.0222 163.863 76.7325 163.863 82.1325C163.863 87.533 167.902 93.243 175.366 93.243C178.791 93.1987 181.996 91.6495 184.498 88.7723L179.669 86.1164C178.439 87.4001 176.903 88.0641 175.234 88.0641C172.776 88.0641 170.624 86.4263 170.054 84.2574H186.21V82.7965C186.254 74.6963 179.888 71.0666 175.366 71.0222ZM170.185 79.4325C170.976 77.3965 172.644 76.2455 174.795 76.2455C176.991 76.2455 178.703 77.3965 179.581 79.4768L170.185 79.4325Z" fill="#5B5B5B"/>
<path d="M199.645 71.0666C192.181 71.0666 188.142 76.7766 188.142 82.1769C188.142 87.5773 192.181 93.2872 199.645 93.2872C203.07 93.243 206.275 91.6938 208.777 88.8166L203.948 86.1608C202.719 87.4445 201.182 88.1083 199.514 88.1083C197.055 88.1083 194.904 86.4704 194.333 84.3016H210.49V82.8409C210.534 74.7404 204.167 71.0666 199.645 71.0666ZM194.465 79.4325C195.255 77.3965 196.923 76.2013 199.074 76.2455C201.27 76.2455 202.982 77.3965 203.86 79.4768L194.465 79.4325Z" fill="#5B5B5B"/>
<path d="M209.743 70.0486H212.246V70.5354H211.236V73.1913H210.709V70.5354H209.744L209.743 70.0486Z" fill="#5B5B5B"/>
<path d="M212.641 70.0485H213.388L214.266 72.4831L215.1 70.0483H215.846V73.1912H215.319V70.7567L214.441 73.1912H214.002L213.124 70.7567V73.1912H212.597V70.0483L212.641 70.0485Z" fill="#5B5B5B"/>
<path d="M28.1538 93.0656L44.091 100.502V93.2427L34.6955 88.8606V73.8108L44.091 78.1929V70.9337L28.1538 63.4973V93.0656Z" fill="#5B5B5B"/>
<path d="M60.072 93.0656L44.0909 100.502V93.2427L53.5303 88.8606V73.8108L44.0909 78.1929V70.9337L60.072 63.4973V93.0656Z" fill="#5B5B5B"/>
</svg>
