<svg width="239" height="161" viewBox="0 0 239 161" fill="none" xmlns="http://www.w3.org/2000/svg">
<path fill-rule="evenodd" clip-rule="evenodd" d="M69.5926 75.7428V71.1837H65.9609C65.1446 71.1837 64.4807 71.8565 64.4807 72.681V102.72H69.5931V87.7682C69.5931 81.4724 74.6629 76.3511 80.8935 76.3511H81.0281V71.1841H80.8935C76.6564 71.1841 72.6569 72.8012 69.5926 75.7428ZM85.1053 72.6807V102.722H90.2173V71.1837H86.5855C85.7692 71.1837 85.1053 71.8561 85.1053 72.6807ZM84.1079 60.3831L87.66 63.9723L91.2146 60.3831L87.66 56.7925M104.133 91.705V76.3505H112.475V71.1831H104.133V57.5919H100.501C99.6852 57.5919 99.0213 58.2627 99.0213 59.0869V71.1837H94.1791V76.3512H99.0213V91.7057C99.0213 96.4162 102.151 100.61 106.632 101.9L112.411 103.569L113.853 98.602L108.036 96.933C105.738 96.2705 104.133 94.1216 104.133 91.705ZM43.9897 98.371C37.7579 98.371 32.6893 93.2481 32.6893 86.9536C32.6893 80.6566 37.7579 75.535 43.9897 75.535C50.2216 75.535 55.2902 80.6566 55.2902 86.9536C55.2902 93.2481 50.2216 98.371 43.9897 98.371ZM43.9897 70.3695C42.3467 70.3695 40.6599 70.6454 38.9772 71.1911C36.8772 71.8252 33.5263 73.4188 32.6893 73.8222V57.5928H29.0574C28.2425 57.5922 27.5769 58.2617 27.5769 59.0862V86.9536C27.5769 96.0967 34.9395 103.536 43.9893 103.536C53.0387 103.536 60.4018 96.0969 60.4018 86.9536C60.4018 77.8081 53.0396 70.3695 43.9897 70.3695ZM132.695 98.371C126.463 98.371 121.395 93.2481 121.395 86.9536C121.395 80.6566 126.463 75.535 132.695 75.535C138.926 75.535 143.994 80.6566 143.994 86.9536C143.994 93.2481 138.926 98.371 132.695 98.371ZM132.695 70.3695C131.052 70.3695 129.365 70.6454 127.683 71.1911C125.581 71.8252 122.23 73.4188 121.395 73.8222V57.5928H117.763C116.946 57.5928 116.283 58.2623 116.283 59.0869V86.9543C116.283 96.0972 123.644 103.537 132.695 103.537C141.745 103.537 149.106 96.0976 149.106 86.9543C149.106 77.8087 141.745 70.3695 132.695 70.3695ZM211.34 73.1024L211.423 72.993L207.307 69.8451L197.511 82.7388L187.798 69.9508L187.716 69.8446L183.6 72.9934L194.256 87.0245L183.683 100.943L183.6 101.051L187.716 104.207L197.512 91.3106L207.307 104.207L211.423 101.051L200.767 87.025" fill="#5B5B5B"/>
<path fill-rule="evenodd" clip-rule="evenodd" d="M168.471 98.4433C162.241 98.4433 157.172 93.3203 157.172 87.0259C157.172 80.7292 162.241 75.6079 168.471 75.6079C174.703 75.6079 179.772 80.7292 179.772 87.0265C179.772 93.3206 174.703 98.4433 168.471 98.4433ZM168.471 70.4421C159.422 70.4421 152.06 77.8804 152.06 87.0256C152.06 96.1689 159.422 103.61 168.471 103.61C177.522 103.61 184.884 96.1689 184.884 87.0259C184.884 77.8807 177.522 70.4421 168.471 70.4421Z" fill="#5B5B5B"/>
</svg>
