<svg width="129" height="38" viewBox="0 0 129 38" fill="none" xmlns="http://www.w3.org/2000/svg">
<path d="M38.8963 30V8.18182H43.5092V26.1967H52.8629V30H38.8963ZM63.29 30.3196C61.6067 30.3196 60.1578 29.9787 58.9434 29.2969C57.736 28.608 56.8056 27.6349 56.1522 26.3778C55.4988 25.1136 55.1721 23.6186 55.1721 21.8928C55.1721 20.2095 55.4988 18.7322 56.1522 17.4609C56.8056 16.1896 57.7253 15.1989 58.9114 14.4886C60.1046 13.7784 61.5037 13.4233 63.1088 13.4233C64.1884 13.4233 65.1934 13.5973 66.1238 13.9453C67.0613 14.2862 67.878 14.8011 68.574 15.4901C69.2772 16.179 69.824 17.0455 70.2147 18.0895C70.6053 19.1264 70.8006 20.3409 70.8006 21.733V22.9794H56.9831V20.1669H66.5286C66.5286 19.5135 66.3865 18.9347 66.1025 18.4304C65.8184 17.9261 65.4242 17.532 64.9199 17.2479C64.4228 16.9567 63.8439 16.8111 63.1834 16.8111C62.4945 16.8111 61.8837 16.9709 61.351 17.2905C60.8255 17.603 60.4135 18.0256 60.1152 18.5582C59.8169 19.0838 59.6642 19.6697 59.6571 20.3161V22.9901C59.6571 23.7997 59.8063 24.4993 60.1046 25.0888C60.41 25.6783 60.8397 26.1328 61.3936 26.4524C61.9476 26.772 62.6046 26.9318 63.3645 26.9318C63.8688 26.9318 64.3304 26.8608 64.7495 26.7188C65.1685 26.5767 65.5272 26.3636 65.8255 26.0795C66.1238 25.7955 66.351 25.4474 66.5073 25.0355L70.7047 25.3125C70.4917 26.321 70.0549 27.2017 69.3944 27.9545C68.7409 28.7003 67.8958 29.2827 66.8588 29.7017C65.829 30.1136 64.6394 30.3196 63.29 30.3196ZM78.4284 30.3089C77.3844 30.3089 76.454 30.1278 75.6373 29.7656C74.8205 29.3963 74.1742 28.853 73.6983 28.1357C73.2296 27.4112 72.9952 26.5092 72.9952 25.4297C72.9952 24.5206 73.1621 23.7571 73.4959 23.1392C73.8297 22.5213 74.2843 22.0241 74.8596 21.6477C75.4348 21.2713 76.0882 20.9872 76.8198 20.7955C77.5584 20.6037 78.3326 20.4688 79.1422 20.3906C80.0939 20.2912 80.861 20.1989 81.4434 20.1136C82.0257 20.0213 82.4483 19.8864 82.7111 19.7088C82.9739 19.5312 83.1053 19.2685 83.1053 18.9205V18.8565C83.1053 18.1818 82.8922 17.6598 82.4661 17.2905C82.0471 16.9212 81.4505 16.7365 80.6763 16.7365C79.8596 16.7365 79.2097 16.9176 78.7267 17.2798C78.2438 17.6349 77.9242 18.0824 77.7679 18.6222L73.5705 18.2812C73.7836 17.2869 74.2026 16.4276 74.8276 15.7031C75.4526 14.9716 76.2587 14.4105 77.2459 14.0199C78.2402 13.6222 79.3908 13.4233 80.6976 13.4233C81.6067 13.4233 82.4767 13.5298 83.3077 13.7429C84.1458 13.956 84.888 14.2862 85.5343 14.7337C86.1877 15.1811 86.7026 15.7564 87.079 16.4595C87.4554 17.1555 87.6436 17.9901 87.6436 18.9631V30H83.3397V27.7308H83.2118C82.949 28.2422 82.5975 28.6932 82.1571 29.0838C81.7168 29.4673 81.1877 29.7692 80.5698 29.9893C79.9519 30.2024 79.2381 30.3089 78.4284 30.3089ZM79.7282 27.1768C80.3958 27.1768 80.9853 27.0455 81.4966 26.7827C82.008 26.5128 82.4093 26.1506 82.7005 25.696C82.9917 25.2415 83.1373 24.7266 83.1373 24.1513V22.4148C82.9952 22.5071 82.7999 22.5923 82.5513 22.6705C82.3098 22.7415 82.0364 22.8089 81.731 22.8729C81.4256 22.9297 81.1202 22.983 80.8148 23.0327C80.5094 23.0753 80.2324 23.1143 79.9838 23.1499C79.4512 23.228 78.986 23.3523 78.5882 23.5227C78.1905 23.6932 77.8816 23.924 77.6614 24.2152C77.4412 24.4993 77.3311 24.8544 77.3311 25.2805C77.3311 25.8984 77.5549 26.3707 78.0023 26.6974C78.4569 27.017 79.0321 27.1768 79.7282 27.1768ZM91.1646 30V13.6364H95.5645V16.4915H95.7349C96.0332 15.4759 96.5339 14.7088 97.237 14.1903C97.9402 13.6648 98.7498 13.402 99.666 13.402C99.8933 13.402 100.138 13.4162 100.401 13.4446C100.664 13.473 100.895 13.5121 101.094 13.5618V17.5888C100.881 17.5249 100.586 17.468 100.209 17.4183C99.8329 17.3686 99.4885 17.3438 99.176 17.3438C98.5083 17.3438 97.9118 17.4893 97.3862 17.7805C96.8677 18.0646 96.4558 18.4624 96.1504 18.9737C95.8521 19.4851 95.7029 20.0746 95.7029 20.7422V30H91.1646ZM107.978 20.5398V30H103.44V13.6364H107.765V16.5234H107.957C108.319 15.5717 108.926 14.8189 109.779 14.2649C110.631 13.7038 111.664 13.4233 112.879 13.4233C114.015 13.4233 115.006 13.6719 115.851 14.169C116.696 14.6662 117.353 15.3764 117.822 16.2997C118.291 17.2159 118.525 18.3097 118.525 19.581V30H113.987V20.3906C113.994 19.3892 113.738 18.608 113.22 18.0469C112.701 17.4787 111.988 17.1946 111.078 17.1946C110.468 17.1946 109.928 17.326 109.459 17.5888C108.998 17.8516 108.635 18.2351 108.373 18.7393C108.117 19.2365 107.985 19.8366 107.978 20.5398ZM124.755 30.277C124.052 30.277 123.448 30.0284 122.944 29.5312C122.447 29.027 122.198 28.4233 122.198 27.7202C122.198 27.0241 122.447 26.4276 122.944 25.9304C123.448 25.4332 124.052 25.1847 124.755 25.1847C125.437 25.1847 126.033 25.4332 126.545 25.9304C127.056 26.4276 127.312 27.0241 127.312 27.7202C127.312 28.1889 127.191 28.6186 126.949 29.0092C126.715 29.3928 126.406 29.7017 126.023 29.9361C125.639 30.1634 125.216 30.277 124.755 30.277Z" fill="#6720C2"/>
<path d="M23.2141 36.0518H14.7851C14.6837 36.0518 14.5865 36.092 14.5148 36.1637C14.4431 36.2354 14.4028 36.3326 14.4028 36.434C14.4028 36.5354 14.4431 36.6326 14.5148 36.7043C14.5865 36.7759 14.6837 36.8162 14.7851 36.8162H23.2141C23.3155 36.8162 23.4127 36.7759 23.4844 36.7043C23.556 36.6326 23.5963 36.5354 23.5963 36.434C23.5963 36.3326 23.556 36.2354 23.4844 36.1637C23.4127 36.092 23.3155 36.0518 23.2141 36.0518Z" fill="#6720C2"/>
<path d="M5.5449 22.0141C5.545 21.9638 5.53518 21.9141 5.51601 21.8677C5.49683 21.8213 5.46868 21.7791 5.43317 21.7436C5.39766 21.7081 5.35548 21.6799 5.30906 21.6607C5.26265 21.6416 5.2129 21.6317 5.16268 21.6318H1.79092C1.68955 21.6318 1.59232 21.6721 1.52064 21.7438C1.44896 21.8155 1.40869 21.9127 1.40869 22.0141C1.40869 22.1154 1.44896 22.2127 1.52064 22.2843C1.59232 22.356 1.68955 22.3963 1.79092 22.3963H5.16268C5.21287 22.3963 5.26257 22.3864 5.30895 22.3672C5.35532 22.348 5.39746 22.3198 5.43295 22.2843C5.46844 22.2488 5.4966 22.2067 5.51581 22.1603C5.53502 22.114 5.5449 22.0643 5.5449 22.0141Z" fill="#6720C2"/>
<path d="M7.59775 30.3971L4.92587 32.4574C4.84556 32.5195 4.79317 32.6108 4.78023 32.7115C4.76728 32.8121 4.79484 32.9137 4.85685 32.994C4.91885 33.0744 5.01022 33.1267 5.11085 33.1397C5.21149 33.1526 5.31314 33.1251 5.39345 33.0631L8.06533 31.0028C8.14564 30.9408 8.19803 30.8494 8.21097 30.7488C8.22392 30.6481 8.19635 30.5465 8.13435 30.4662C8.07234 30.3858 7.98098 30.3335 7.88034 30.3205C7.77971 30.3076 7.67806 30.3351 7.59775 30.3971Z" fill="#6720C2"/>
<path d="M4.95414 12.6914L7.55179 14.8438C7.59049 14.8758 7.63511 14.8999 7.68311 14.9146C7.73111 14.9294 7.78155 14.9346 7.83155 14.9299C7.88155 14.9252 7.93013 14.9106 7.97452 14.8871C8.01891 14.8636 8.05823 14.8316 8.09025 14.7929C8.12227 14.7542 8.14635 14.7096 8.16112 14.6616C8.17589 14.6136 8.18107 14.5632 8.17635 14.5132C8.17163 14.4632 8.1571 14.4146 8.13361 14.3702C8.11011 14.3258 8.0781 14.2865 8.03941 14.2545L5.44175 12.1058C5.36324 12.0504 5.26673 12.0266 5.17145 12.0392C5.07617 12.0517 4.98911 12.0997 4.92761 12.1735C4.86612 12.2474 4.8347 12.3417 4.83961 12.4377C4.84453 12.5336 4.88542 12.6242 4.95414 12.6914Z" fill="#6720C2"/>
<path d="M36.2091 21.6318H32.8373C32.7359 21.6318 32.6387 21.6721 32.567 21.7438C32.4953 21.8155 32.4551 21.9127 32.4551 22.0141C32.4551 22.1154 32.4953 22.2127 32.567 22.2843C32.6387 22.356 32.7359 22.3963 32.8373 22.3963H36.2091C36.3104 22.3963 36.4077 22.356 36.4793 22.2843C36.551 22.2127 36.5913 22.1154 36.5913 22.0141C36.5913 21.9127 36.551 21.8155 36.4793 21.7438C36.4077 21.6721 36.3104 21.6318 36.2091 21.6318Z" fill="#6720C2"/>
<path d="M33.0712 32.4574L30.3993 30.3971C30.3595 30.3664 30.3141 30.3439 30.2656 30.3307C30.2171 30.3176 30.1665 30.3141 30.1167 30.3205C30.0669 30.3269 30.0188 30.3431 29.9752 30.3681C29.9316 30.3931 29.8934 30.4264 29.8627 30.4662C29.832 30.5059 29.8094 30.5513 29.7963 30.5998C29.7831 30.6483 29.7797 30.6989 29.7861 30.7488C29.7925 30.7986 29.8087 30.8467 29.8336 30.8902C29.8586 30.9338 29.892 30.9721 29.9317 31.0028L32.6036 33.0631C32.6434 33.0938 32.6888 33.1163 32.7373 33.1295C32.7858 33.1426 32.8364 33.1461 32.8862 33.1397C32.936 33.1333 32.9841 33.1171 33.0277 33.0921C33.0713 33.0671 33.1095 33.0338 33.1402 32.994C33.1709 32.9543 33.1935 32.9089 33.2066 32.8604C33.2198 32.8119 33.2232 32.7613 33.2168 32.7114C33.2104 32.6616 33.1943 32.6135 33.1693 32.57C33.1443 32.5264 33.1109 32.4881 33.0712 32.4574Z" fill="#6720C2"/>
<path d="M32.3401 16.4982C32.3483 16.2392 32.3995 13.9428 31.5527 13.0685C31.4284 12.939 31.2761 12.8397 31.1074 12.7783V6.54397C31.107 6.52682 31.1055 6.50971 31.1029 6.49276C31.1033 6.48906 31.1033 6.48533 31.1029 6.48162C31.0973 6.44806 31.0873 6.41537 31.0732 6.3844C31.0731 6.38193 31.0731 6.37945 31.0732 6.37698C31.058 6.34654 31.0391 6.31812 31.0168 6.29237L31.0109 6.28569C30.9997 6.27356 30.9878 6.26216 30.9753 6.25155C30.9621 6.24075 30.9482 6.23083 30.9337 6.22186L30.9248 6.21592C30.9098 6.20683 30.8942 6.19889 30.878 6.19217L19.1485 1.21432C19.1015 1.19468 19.051 1.18457 19.0001 1.18457C18.9491 1.18457 18.8986 1.19468 18.8516 1.21432L7.12877 6.19291C7.05973 6.22224 7.00085 6.27124 6.95946 6.33379C6.91807 6.39635 6.896 6.4697 6.896 6.54471C6.896 6.61972 6.91807 6.69307 6.95946 6.75563C7.00085 6.81818 7.05973 6.86718 7.12877 6.89651L11.9367 8.93901V15.6558C11.9366 15.706 11.9464 15.7557 11.9655 15.802C11.9846 15.8484 12.0127 15.8905 12.0481 15.926C12.0836 15.9615 12.1257 15.9897 12.172 16.0089C12.2183 16.0281 12.268 16.038 12.3181 16.038C11.2105 17.0933 10.3684 18.3957 9.86064 19.8388C9.35291 21.2819 9.194 22.8248 9.39692 24.3411C9.59983 25.8574 10.1588 27.3041 11.0281 28.563C11.8974 29.8218 13.0524 30.857 14.3985 31.5839V33.6806C14.3987 33.7819 14.439 33.879 14.5107 33.9506C14.5823 34.0223 14.6794 34.0626 14.7807 34.0628H23.2142C23.2645 34.0628 23.3142 34.0529 23.3606 34.0336C23.4071 34.0144 23.4492 33.9862 23.4847 33.9506C23.5202 33.915 23.5484 33.8728 23.5675 33.8263C23.5867 33.7799 23.5965 33.7301 23.5964 33.6798C23.5966 33.6513 23.5934 33.6229 23.5868 33.5952V31.5913C24.9353 30.866 26.0927 29.8315 26.9643 28.5726C27.8359 27.3136 28.3968 25.8661 28.601 24.3486C28.8052 22.8311 28.6469 21.2868 28.1391 19.8422C27.6314 18.3977 26.7885 17.094 25.6797 16.038C25.7299 16.038 25.7796 16.0281 25.8259 16.0089C25.8722 15.9897 25.9143 15.9615 25.9498 15.926C25.9852 15.8905 26.0133 15.8484 26.0324 15.802C26.0515 15.7557 26.0613 15.706 26.0612 15.6558V8.93826L30.3392 7.1251V12.7806C30.1704 12.8418 30.018 12.9411 29.8939 13.0708C29.0471 13.9451 29.0975 16.2414 29.1064 16.5004C29.1093 16.5998 29.1509 16.6942 29.2222 16.7635C29.2936 16.8328 29.3892 16.8715 29.4886 16.8715H31.9609C32.0602 16.8708 32.1554 16.8314 32.2261 16.7617C32.2969 16.692 32.3378 16.5975 32.3401 16.4982ZM19.0001 1.98174L28.8437 6.16026H19.0001C18.8987 6.16026 18.8015 6.20053 18.7298 6.27221C18.6581 6.34389 18.6178 6.44111 18.6178 6.54248C18.6178 6.64386 18.6581 6.74108 18.7298 6.81276C18.8015 6.88444 18.8987 6.92471 19.0001 6.92471H28.8437L25.5855 8.3126C25.5488 8.32182 25.5138 8.33659 25.4816 8.35639L19.0001 11.1077L12.5185 8.35491C12.4862 8.33513 12.4512 8.32013 12.4146 8.31037L8.25838 6.54471L19.0001 1.98174ZM16.8284 24.1509C15.8888 23.8985 15.1719 23.4696 14.7599 22.8936C14.3955 22.383 14.3146 21.787 14.5247 21.1703C14.6553 20.7895 14.8512 20.7249 14.9833 20.7249C15.0167 20.7254 15.05 20.7288 15.0828 20.7353C15.7945 20.8533 16.8284 22.1269 16.8284 23.8525V24.1509ZM20.4102 33.2976H17.5899V25.0801C18.5238 25.2055 19.4703 25.2055 20.4043 25.0801L20.4102 33.2976ZM27.9263 23.0554C27.9307 24.706 27.4753 26.3252 26.6114 27.7316C25.7474 29.138 24.5089 30.2761 23.0346 31.0183C22.9715 31.0503 22.9186 31.0992 22.8817 31.1594C22.8447 31.2197 22.8252 31.2891 22.8253 31.3597V33.2991H21.1717V24.9376C22.3815 24.6467 23.3203 24.0982 23.8621 23.3397C24.369 22.6294 24.4885 21.7722 24.1983 20.9239C23.9601 20.2292 23.4339 19.8766 22.7882 19.985C21.6601 20.1728 20.4035 21.8093 20.4035 23.857V24.3105C19.4701 24.4433 18.5226 24.4433 17.5892 24.3105V23.857C17.5892 21.8093 16.3326 20.1728 15.2045 19.985C14.561 19.8781 14.0356 20.2292 13.7944 20.9239C13.5042 21.7722 13.6237 22.6309 14.1313 23.3397C14.6731 24.0982 15.612 24.6467 16.8217 24.9376V33.2976H15.1674V31.3516C15.1675 31.2811 15.1481 31.2119 15.1113 31.1518C15.0745 31.0916 15.0217 31.0429 14.9588 31.0109C13.6224 30.3315 12.4787 29.3264 11.6332 28.0884C10.7877 26.8504 10.2677 25.4193 10.1212 23.9273C9.97472 22.4353 10.2064 20.9304 10.7949 19.5516C11.3835 18.1728 12.3098 16.9644 13.4886 16.038H24.513C25.579 16.8698 26.4405 17.9345 27.0316 19.1506C27.6228 20.3666 27.9278 21.7018 27.9234 23.0539L27.9263 23.0554ZM21.1724 24.1524V23.8555C21.1724 22.1299 22.2063 20.8563 22.9181 20.7383C22.9508 20.7318 22.9841 20.7283 23.0175 20.7279C23.1496 20.7279 23.3456 20.7895 23.4754 21.1732C23.687 21.79 23.6053 22.386 23.2409 22.8966C22.8283 23.4696 22.1113 23.8985 21.1717 24.1509L21.1724 24.1524ZM25.2997 15.2751H12.7011V9.26334L18.8516 11.8751C18.8986 11.895 18.9491 11.9052 19.0001 11.9052C19.0511 11.9052 19.1015 11.895 19.1485 11.8751L25.2983 9.26334L25.2997 15.2751ZM29.8657 16.1056C29.8805 15.235 30.0327 14.0222 30.4401 13.6022C30.5029 13.531 30.5884 13.4837 30.6821 13.4686H30.7214H30.7615C30.8551 13.4841 30.9405 13.5312 31.0035 13.6022C31.4109 14.0222 31.5631 15.235 31.5779 16.1056H29.8657Z" fill="#6720C2"/>
</svg>
