<svg width="134" height="133" viewBox="0 0 134 133" fill="none" xmlns="http://www.w3.org/2000/svg">
<g filter="url(#filter0_d_1_5443)">
<rect x="30.3364" y="30" width="73" height="73" rx="12" fill="#EC732F"/>
</g>
<g clip-path="url(#clip0_1_5443)">
<path d="M67.5 49C64.0388 49 60.6554 50.0264 57.7775 51.9493C54.8997 53.8722 52.6566 56.6053 51.3321 59.803C50.0076 63.0007 49.661 66.5194 50.3363 69.9141C51.0115 73.3087 52.6782 76.427 55.1256 78.8744C57.5731 81.3218 60.6913 82.9885 64.0859 83.6637C67.4806 84.339 70.9993 83.9924 74.197 82.6679C77.3947 81.3434 80.1278 79.1003 82.0507 76.2225C83.9736 73.3446 85 69.9612 85 66.5C85 61.8587 83.1563 57.4075 79.8744 54.1256C76.5925 50.8437 72.1413 49 67.5 49ZM67.5 82.5417C64.3273 82.5417 61.2258 81.6008 58.5877 79.8382C55.9497 78.0755 53.8936 75.5701 52.6794 72.6389C51.4653 69.7077 51.1476 66.4822 51.7666 63.3704C52.3855 60.2586 53.9134 57.4003 56.1568 55.1568C58.4003 52.9134 61.2587 51.3855 64.3704 50.7666C67.4822 50.1476 70.7077 50.4653 73.6389 51.6794C76.5701 52.8936 79.0755 54.9497 80.8382 57.5877C82.6008 60.2258 83.5417 63.3273 83.5417 66.5C83.5417 70.7545 81.8516 74.8348 78.8432 77.8432C75.8348 80.8516 71.7545 82.5417 67.5 82.5417Z" fill="white"/>
<path d="M61.6667 63.5833C62.2435 63.5833 62.8074 63.4123 63.2871 63.0918C63.7667 62.7713 64.1406 62.3158 64.3613 61.7828C64.5821 61.2499 64.6398 60.6634 64.5273 60.0977C64.4148 59.5319 64.137 59.0122 63.7291 58.6043C63.3212 58.1964 62.8015 57.9186 62.2357 57.806C61.6699 57.6935 61.0835 57.7513 60.5505 57.972C60.0176 58.1928 59.562 58.5666 59.2415 59.0463C58.9211 59.5259 58.75 60.0898 58.75 60.6667C58.75 61.4402 59.0573 62.1821 59.6043 62.7291C60.1513 63.276 60.8931 63.5833 61.6667 63.5833ZM61.6667 59.2083C61.9551 59.2083 62.2371 59.2939 62.4769 59.4541C62.7167 59.6144 62.9036 59.8421 63.014 60.1086C63.1244 60.3751 63.1532 60.6683 63.097 60.9512C63.0407 61.2341 62.9018 61.4939 62.6979 61.6979C62.4939 61.9018 62.2341 62.0407 61.9512 62.097C61.6683 62.1533 61.3751 62.1244 61.1086 62.014C60.8421 61.9036 60.6144 61.7167 60.4541 61.4769C60.2939 61.2371 60.2083 60.9551 60.2083 60.6667C60.2083 60.2799 60.362 59.909 60.6355 59.6355C60.909 59.362 61.2799 59.2083 61.6667 59.2083Z" fill="white"/>
<path d="M73.3334 57.75C72.7565 57.75 72.1926 57.9211 71.7129 58.2415C71.2333 58.562 70.8595 59.0176 70.6387 59.5505C70.418 60.0835 70.3602 60.6699 70.4727 61.2357C70.5853 61.8015 70.8631 62.3212 71.271 62.7291C71.6789 63.137 72.1986 63.4148 72.7643 63.5273C73.3301 63.6398 73.9166 63.5821 74.4495 63.3613C74.9825 63.1406 75.438 62.7667 75.7585 62.2871C76.079 61.8074 76.25 61.2435 76.25 60.6667C76.25 59.8931 75.9427 59.1513 75.3957 58.6043C74.8488 58.0573 74.1069 57.75 73.3334 57.75ZM73.3334 62.125C73.0449 62.125 72.763 62.0395 72.5231 61.8792C72.2833 61.719 72.0964 61.4912 71.986 61.2247C71.8757 60.9583 71.8468 60.665 71.903 60.3822C71.9593 60.0993 72.0982 59.8394 72.3022 59.6355C72.5061 59.4315 72.766 59.2926 73.0488 59.2364C73.3317 59.1801 73.625 59.209 73.8914 59.3193C74.1579 59.4297 74.3857 59.6166 74.5459 59.8565C74.7062 60.0963 74.7917 60.3782 74.7917 60.6667C74.7917 61.0534 74.638 61.4244 74.3646 61.6979C74.0911 61.9714 73.7201 62.125 73.3334 62.125Z" fill="white"/>
<path d="M67.5 75.9792C65.5661 75.9792 63.7115 75.2109 62.344 73.8435C60.9766 72.476 60.2083 70.6214 60.2083 68.6875H58.75C58.75 71.0081 59.6719 73.2337 61.3128 74.8747C62.9538 76.5156 65.1794 77.4375 67.5 77.4375C69.8206 77.4375 72.0462 76.5156 73.6872 74.8747C75.3281 73.2337 76.25 71.0081 76.25 68.6875H74.7917C74.7917 70.6214 74.0234 72.476 72.656 73.8435C71.2885 75.2109 69.4339 75.9792 67.5 75.9792Z" fill="white"/>
</g>
<defs>
<filter id="filter0_d_1_5443" x="0.336426" y="0" width="133" height="133" filterUnits="userSpaceOnUse" color-interpolation-filters="sRGB">
<feFlood flood-opacity="0" result="BackgroundImageFix"/>
<feColorMatrix in="SourceAlpha" type="matrix" values="0 0 0 0 0 0 0 0 0 0 0 0 0 0 0 0 0 0 127 0" result="hardAlpha"/>
<feOffset/>
<feGaussianBlur stdDeviation="15"/>
<feComposite in2="hardAlpha" operator="out"/>
<feColorMatrix type="matrix" values="0 0 0 0 0 0 0 0 0 0 0 0 0 0 0 0 0 0 0.15 0"/>
<feBlend mode="normal" in2="BackgroundImageFix" result="effect1_dropShadow_1_5443"/>
<feBlend mode="normal" in="SourceGraphic" in2="effect1_dropShadow_1_5443" result="shape"/>
</filter>
<clipPath id="clip0_1_5443">
<rect width="35" height="35" fill="white" transform="translate(50 49)"/>
</clipPath>
</defs>
</svg>
