<svg width="134" height="133" viewBox="0 0 134 133" fill="none" xmlns="http://www.w3.org/2000/svg">
<g filter="url(#filter0_d_1_5472)">
<rect x="30.3364" y="30" width="73" height="73" rx="12" fill="#ED4883"/>
</g>
<path d="M68.5938 82.9062H66.4062C65.1977 82.9062 64.2188 81.9273 64.2188 80.7188V78.5312H70.7812V80.7188C70.7812 81.9273 69.8023 82.9062 68.5938 82.9062Z" stroke="white" stroke-width="2" stroke-miterlimit="10" stroke-linejoin="round"/>
<path d="M75.1562 66.5C75.1562 69.2541 73.8591 71.8473 71.6562 73.5L70.7812 74.1562V78.5312H64.2188V74.1562L63.3437 73.5C61.1409 71.8473 59.8438 69.2541 59.8438 66.5C59.8438 62.2716 63.2716 58.8438 67.5 58.8438C71.7284 58.8438 75.1562 62.2716 75.1562 66.5Z" stroke="white" stroke-width="2" stroke-miterlimit="10" stroke-linejoin="round"/>
<path d="M67.5 55.5625V51.1875" stroke="white" stroke-width="2" stroke-miterlimit="10" stroke-linejoin="round"/>
<path d="M59.7672 58.7661L56.673 55.6719" stroke="white" stroke-width="2" stroke-miterlimit="10" stroke-linejoin="round"/>
<path d="M75.2328 58.7661L78.327 55.6719" stroke="white" stroke-width="2" stroke-miterlimit="10" stroke-linejoin="round"/>
<path d="M56.5625 66.5H52.1875" stroke="white" stroke-width="2" stroke-miterlimit="10" stroke-linejoin="round"/>
<path d="M78.4375 66.5H82.8125" stroke="white" stroke-width="2" stroke-miterlimit="10" stroke-linejoin="round"/>
<defs>
<filter id="filter0_d_1_5472" x="0.336426" y="0" width="133" height="133" filterUnits="userSpaceOnUse" color-interpolation-filters="sRGB">
<feFlood flood-opacity="0" result="BackgroundImageFix"/>
<feColorMatrix in="SourceAlpha" type="matrix" values="0 0 0 0 0 0 0 0 0 0 0 0 0 0 0 0 0 0 127 0" result="hardAlpha"/>
<feOffset/>
<feGaussianBlur stdDeviation="15"/>
<feComposite in2="hardAlpha" operator="out"/>
<feColorMatrix type="matrix" values="0 0 0 0 0 0 0 0 0 0 0 0 0 0 0 0 0 0 0.15 0"/>
<feBlend mode="normal" in2="BackgroundImageFix" result="effect1_dropShadow_1_5472"/>
<feBlend mode="normal" in="SourceGraphic" in2="effect1_dropShadow_1_5472" result="shape"/>
</filter>
</defs>
</svg>
