<svg width="134" height="133" viewBox="0 0 134 133" fill="none" xmlns="http://www.w3.org/2000/svg">
<g filter="url(#filter0_d_1_5457)">
<rect x="30.3364" y="30" width="73" height="73" rx="12" fill="#417CD4"/>
</g>
<g clip-path="url(#clip0_1_5457)">
<path d="M50.7 76.3819H71V83.2181L75.2 80.6981L79.4 83.2181V76.3819H84.3V49.7819H50.7V76.3819ZM78.1855 71.6317C78.1225 71.6954 78.0553 71.7542 77.9888 71.8137C77.951 71.8473 77.916 71.883 77.8768 71.9152C77.8334 71.9516 77.7872 71.9824 77.7424 72.0167C77.1523 72.4682 76.4411 72.7685 75.6648 72.8546C75.6522 72.856 75.6396 72.8588 75.6263 72.8602C75.4856 72.8742 75.3428 72.8819 75.1986 72.8819C75.0544 72.8819 74.9116 72.8742 74.7709 72.8602C74.7583 72.8588 74.7457 72.856 74.7324 72.8546C73.9561 72.7685 73.2456 72.4682 72.6548 72.0167C72.61 71.9824 72.5638 71.9509 72.5204 71.9152C72.4819 71.883 72.4462 71.8473 72.4084 71.8137C72.3419 71.7542 72.2754 71.6954 72.2117 71.6317C71.462 70.8729 70.9972 69.8313 70.9972 68.6819C70.9972 66.3656 72.8809 64.4819 75.1972 64.4819C77.5135 64.4819 79.3972 66.3656 79.3972 68.6819C79.4 69.8306 78.9359 70.8722 78.1855 71.6317ZM78 80.7457L75.2 79.0657L72.4 80.7457V76.3819V73.5329C72.4238 73.5469 72.4504 73.556 72.4749 73.5693C72.6604 73.6729 72.8515 73.7681 73.0489 73.8507C73.0573 73.8542 73.0664 73.857 73.0755 73.8605C73.7314 74.1307 74.4482 74.2819 75.2007 74.2819C75.9532 74.2819 76.67 74.1307 77.3259 73.8605C77.3343 73.857 77.3434 73.8542 77.3525 73.8507C77.5499 73.7681 77.741 73.6736 77.9265 73.5693C77.951 73.556 77.9776 73.5469 78.0014 73.5329V76.3819V80.7457H78ZM52.1 51.1819H82.9V74.9819H79.4V72.3737C80.2687 71.3867 80.8 70.0966 80.8 68.6819C80.8 65.5942 78.2877 63.0819 75.2 63.0819C72.1123 63.0819 69.6 65.5942 69.6 68.6819C69.6 70.0966 70.1313 71.3867 71 72.3737V74.9819H52.1V51.1819Z" fill="white"/>
<path d="M76.5999 53.9818H58.3999V55.3818H76.5999V53.9818Z" fill="white"/>
<path d="M73.0999 58.1819H61.8999V59.5819H73.0999V58.1819Z" fill="white"/>
<path d="M62.5999 70.7819H54.8999V72.1819H62.5999V70.7819Z" fill="white"/>
</g>
<defs>
<filter id="filter0_d_1_5457" x="0.336426" y="0" width="133" height="133" filterUnits="userSpaceOnUse" color-interpolation-filters="sRGB">
<feFlood flood-opacity="0" result="BackgroundImageFix"/>
<feColorMatrix in="SourceAlpha" type="matrix" values="0 0 0 0 0 0 0 0 0 0 0 0 0 0 0 0 0 0 127 0" result="hardAlpha"/>
<feOffset/>
<feGaussianBlur stdDeviation="15"/>
<feComposite in2="hardAlpha" operator="out"/>
<feColorMatrix type="matrix" values="0 0 0 0 0 0 0 0 0 0 0 0 0 0 0 0 0 0 0.15 0"/>
<feBlend mode="normal" in2="BackgroundImageFix" result="effect1_dropShadow_1_5457"/>
<feBlend mode="normal" in="SourceGraphic" in2="effect1_dropShadow_1_5457" result="shape"/>
</filter>
<clipPath id="clip0_1_5457">
<rect width="35" height="35" fill="white" transform="translate(50 49)"/>
</clipPath>
</defs>
</svg>
